<svg width="47" height="45" viewBox="0 0 47 45" fill="none" xmlns="http://www.w3.org/2000/svg">
<path d="M43.1166 14.6875H37.3298L29.375 6.73569V0H20.5625V2.63788L8.8125 6.956V5.875H0V14.6875H3.81875L9.5175 22.0312L3.81875 29.375H0V38.1875H8.8125V37.1065L20.5625 41.4246V44.0625H29.375V37.3268L37.3268 29.375H43.1137C44.1432 29.3727 45.1299 28.9629 45.8581 28.2352C46.5864 27.5075 46.9969 26.5211 47 25.4916V18.5709C46.9969 17.5419 46.5868 16.5559 45.8592 15.8283C45.1316 15.1007 44.1456 14.6906 43.1166 14.6875ZM23.5 2.9375H26.4375V5.875H23.5V2.9375ZM20.5625 5.76631V8.45413L16.2826 14.2057L11.2594 9.18262L20.5625 5.76631ZM16.3883 17.9716L20.5596 21.4291L16.6086 25.3771L13.6858 21.4526L16.3883 17.9716ZM2.9375 8.8125H5.875V11.75H2.9375V8.8125ZM7.53762 14.6875H8.8125V10.8893L14.5113 16.5881L11.8176 20.2012L7.53762 14.6875ZM5.875 35.25H2.9375V32.3125H5.875V35.25ZM7.53762 29.375L11.8176 23.8613L14.5083 27.4744L8.8125 33.1761V29.375H7.53762ZM11.2624 34.8769L16.2826 29.8567L20.5625 35.6084V38.2962L11.2624 34.8769ZM26.4375 41.125H23.5V38.1875H26.4375V41.125ZM27.2982 35.25H23.9583L18.3799 27.7594L20.5625 25.5768V26.4375H29.375V23.5H32.3125V25.4916C32.3214 26.1013 32.4762 26.7001 32.7639 27.2377C33.0517 27.7753 33.4639 28.2362 33.9663 28.5819L27.2982 35.25ZM23.5 20.5625H26.4375V23.5H23.5V20.5625ZM32.3125 18.5709V20.5625H29.375V17.625H20.5625V18.4857L18.3799 16.3031L23.9583 8.8125H27.2982L33.9663 15.4806C33.4639 15.8263 33.0517 16.2872 32.7639 16.8248C32.4762 17.3624 32.3214 17.9612 32.3125 18.5709ZM44.0625 23.3561C44.0617 24.1736 43.7364 24.9573 43.1581 25.5351C42.5797 26.1129 41.7956 26.4375 40.9781 26.4375H38.3344C37.5163 26.4375 36.7318 26.1125 36.1534 25.5341C35.575 24.9557 35.25 24.1712 35.25 23.3531V20.7094C35.25 20.3043 35.3298 19.9032 35.4848 19.529C35.6398 19.1548 35.867 18.8148 36.1534 18.5284C36.4398 18.242 36.7798 18.0148 37.154 17.8598C37.5283 17.7048 37.9293 17.625 38.3344 17.625H40.9781C41.7962 17.625 42.5807 17.95 43.1591 18.5284C43.7375 19.1068 44.0625 19.8913 44.0625 20.7094V23.3561ZM38.1875 20.5625H41.125V23.5H38.1875V20.5625Z" fill="black"/>
</svg>
